<svg xmlns="http://www.w3.org/2000/svg" version="1.1" xmlns:xlink="http://www.w3.org/1999/xlink" xmlns:svgjs="http://svgjs.dev/svgjs" width="1000" height="361" viewBox="0 0 1000 361"><g transform="matrix(1,0,0,1,-0.6056348047760025,-0.22750132086804342)"><svg viewBox="0 0 396 143" data-background-color="#8d021f" preserveAspectRatio="xMidYMid meet" height="361" width="1000" xmlns="http://www.w3.org/2000/svg" xmlns:xlink="http://www.w3.org/1999/xlink"><g id="tight-bounds" transform="matrix(1,0,0,1,0.24008861730857234,0.09011825175659283)"><svg viewBox="0 0 395.51999999999987 142.81967515151513" height="142.81967515151513" width="395.51999999999987"><g><svg viewBox="0 0 395.51999999999987 142.81967515151513" height="142.81967515151513" width="395.51999999999987"><g><svg viewBox="0 0 395.51999999999987 142.81967515151513" height="142.81967515151513" width="395.51999999999987"><g><svg viewBox="0 0 395.51999999999987 142.81967515151513" height="142.81967515151513" width="395.51999999999987"><g><svg viewBox="0 0 395.51999999999987 142.81967515151513" height="142.81967515151513" width="395.51999999999987"><path d="M394.594 30.632C392.735 15.807 387.435 11.686 387.435 11.686 371.165-3.583 350.86-0.292 332.619 1.902 300.414 1.991 268.339 5.252 236.208 7.002 168.767 7.268 100.749 2.88 33.643 13.702 27.339 17.023-6.54 14.355 1.121 32.53 3.129 40.09 10.456 48.481 10.232 55.419 11.236 56.634 12.631 53.847 13.226 55.597 15.309 60.311 18.711 58.087 21.501 60.874 17.614 68.316 20.403 74.513 23.062 81.006 18.377 82.696 12.371 81.896 9.675 87.499 9.396 91.561 7.89 90.79 6.235 90.613 5.026 90.494 2.59 90.939 2.999 92.214 4.394 96.572-1.594 99.092 2.162 103.362-0.422 107.987 3.948 111.99 3.353 117 3.278 118.008 3.687 118.868 4.338 119.105 7.22 120.38 3.018 122.871 3.464 125.569 33.029 144.011 65.104 131.262 95.394 139.741 103.259 133.812 97.346 141.846 100.489 140.601 102.943 139.148 104.728 145.167 107.499 141.758 107.927 140.779 107.276 138.466 108.8 138.911 109.6 139.148 110.307 139.089 110.418 137.725 110.586 135.679 109.117 136.954 108.726 135.887 112.947 130.491 111.906 143.329 115.866 142.795 115.68 141.224 114.528 138.97 116.889 139.267 119.232 137.014 119.306 135.146 121.389 140.216 121.463 141.313 121.835 142.084 122.43 142.617 128.938 137.103 135.409 144.574 142.233 142.084 146.417 139.356 150.433 143.566 154.672 142.528 156.16 141.698 157.666 140.216 159.098 142.706 176.632 143.24 195.319 141.016 211.943 142.795 256.364 139.475 303.835 144.159 350.674 139.771 361.719 138.081 373.192 135.679 383.958 133.752 383.958 133.752 392.679 128.475 392.679 104.755S394.538 84.001 394.817 65.114C395.096 46.228 396.398 45.457 394.538 30.632Z" opacity="1" fill="#ffffff" data-fill-palette-color="tertiary"></path><g transform="matrix(1,0,0,1,55.768319999999974,26.230666666666668)"><svg width="283.9833599999999" viewBox="6.25 -50 137.5 43.75" height="90.3583418181818" data-palette-color="#8d021f"><path d="M43.75-6.25L6.25-6.25 6.25-50 18.75-50 18.75-12.5 43.75-12.5 43.75-6.25ZM87.5-6.25L56.25-6.25 56.25-12.5 50-12.5 50-50 62.5-50 62.5-12.5 81.25-12.5 81.25-50 93.75-50 93.75-12.5 87.5-12.5 87.5-6.25ZM131.25-6.25L100-6.25 100-50 131.25-50 131.25-43.75 137.5-43.75 137.5-37.5 143.75-37.5 143.75-18.75 137.5-18.75 137.5-12.5 131.25-12.5 131.25-6.25ZM112.5-43.75L112.5-12.5 125-12.5 125-18.75 131.25-18.75 131.25-37.5 125-37.5 125-43.75 112.5-43.75Z" opacity="1" transform="matrix(1,0,0,1,0,0)" fill="#8d021f" class="undefined-text-0" data-fill-palette-color="quaternary" id="text-0"></path></svg></g></svg></g></svg></g></svg></g><g></g></svg></g><defs></defs></svg><rect width="395.51999999999987" height="142.81967515151513" fill="none" stroke="none" visibility="hidden"></rect></g></svg></g></svg>